<?xml version="1.0" encoding="UTF-8"?>
<svg width="26px" height="26px" viewBox="0 0 26 26" version="1.1" xmlns="http://www.w3.org/2000/svg" xmlns:xlink="http://www.w3.org/1999/xlink">
    <!-- Generator: Sketch 42 (36781) - http://www.bohemiancoding.com/sketch -->
    <title>collocation</title>
    <desc>Created with Sketch.</desc>
    <defs></defs>
    <g id="关联分析-事件树" stroke="none" stroke-width="1" fill="none" fill-rule="evenodd">
        <g id="调查取证-关联分析-hover上去显示详情-点击展开-右键可以表格形式展示" transform="translate(-935.000000, -403.000000)" fill="#848484">
            <g id="event-tree" transform="translate(9.000000, 186.000000)">
                <g id="icon" transform="translate(38.000000, 0.000000)">
                    <g id="collocation" transform="translate(888.000000, 217.071429)">
                        <path d="M12.1456961,7.62641176 C12.6402059,5.61829412 12.1032549,3.40816667 10.5342059,1.8392451 C8.81540196,0.120441176 6.32730392,-0.359921569 4.17822549,0.397392157 L7.89533333,4.1145 C8.40819608,4.6274902 8.40819608,5.45910784 7.89533333,5.97222549 L7.09073529,6.77682353 C7.04498039,6.81760784 6.99795098,6.85648039 6.95410784,6.90032353 C6.91026471,6.94416667 6.87151961,6.99106863 6.83086275,7.03669608 L6.0260098,7.84154902 C5.51301961,8.35453922 4.68114706,8.35453922 4.16828431,7.84154902 L0.45104902,4.12444118 C-0.306392157,6.27364706 0.173843137,8.76161765 1.89277451,10.480549 C3.46182353,12.049598 5.67207843,12.5866765 7.68019608,12.0921667 L20.5428039,24.9546471 C21.7758922,26.1877353 23.7750882,26.1877353 25.0083039,24.9546471 C26.2415196,23.7214314 26.2415196,21.7221078 25.0083039,20.4890196 L12.1456961,7.62641176 Z M23.6217647,23.5681078 C23.054098,24.135902 22.1333922,24.135902 21.565598,23.5682353 C20.9980588,23.0005686 20.9980588,22.0798627 21.5658529,21.5121961 C22.1336471,20.9442745 23.054098,20.944402 23.6218922,21.5120686 C24.1895588,22.0797353 24.1895588,23.0001863 23.6217647,23.5681078 Z" id="Shape"></path>
                        <path d="M14.9130392,9.10293137 L21.8953137,2.12078431 C22.0652059,1.95076471 22.3406275,1.95063725 22.5107745,2.12065686 C22.6806667,2.29067647 22.6806667,2.56648039 22.5107745,2.73637255 L15.5286275,9.71851961 L16.5357451,10.7256373 L23.5177647,3.7434902 C23.6879118,3.57347059 23.9635882,3.57359804 24.1334804,3.7434902 C24.3035,3.9135098 24.3035,4.18905882 24.1334804,4.35907843 L17.1513333,11.3412255 L17.1513333,11.3413529 L18.265,12.4550196 L25.0562255,5.66379412 C26.2893137,4.43070588 26.2893137,2.43138235 25.0562255,1.19816667 C23.8230098,-0.0349215686 21.8236863,-0.0350490196 20.590598,1.19816667 L13.7993725,7.98939216 L14.9130392,9.10293137 L14.9130392,9.10293137 Z" id="Shape"></path>
                        <polygon id="Shape" points="9.2817451 15.1755882 5.15526471 19.4573039 3.09756863 20.0086569 0.33022549 24.2910098 1.84561765 25.8062745 6.12784314 23.0391863 6.67932353 20.9814902 10.9607843 16.8547549"></polygon>
                    </g>
                </g>
            </g>
        </g>
    </g>
</svg>