<?xml version="1.0" encoding="UTF-8"?>
<svg width="26px" height="28px" viewBox="0 0 26 28" version="1.1" xmlns="http://www.w3.org/2000/svg" xmlns:xlink="http://www.w3.org/1999/xlink">
    <!-- Generator: Sketch 42 (36781) - http://www.bohemiancoding.com/sketch -->
    <title>document</title>
    <desc>Created with Sketch.</desc>
    <defs></defs>
    <g id="关联分析-事件树" stroke="none" stroke-width="1" fill="none" fill-rule="evenodd">
        <g id="调查取证-关联分析-hover上去显示详情-点击展开-右键可以表格形式展示" transform="translate(-935.000000, -474.000000)" fill="#848484">
            <g id="event-tree" transform="translate(9.000000, 186.000000)">
                <g id="icon" transform="translate(38.000000, 0.000000)">
                    <g id="document" transform="translate(888.000000, 288.000000)">
                        <path d="M22.9679348,0.315978261 L2.58619565,0.315978261 C1.32163043,0.315978261 0.29673913,1.34086957 0.29673913,2.60576087 L0.29673913,25.4141304 C0.29673913,26.6793478 1.32195652,27.703913 2.58619565,27.703913 L22.9679348,27.703913 C24.2331522,27.703913 25.2573913,26.6790217 25.2573913,25.4141304 L25.2573913,2.60576087 C25.2573913,1.34086957 24.2328261,0.315978261 22.9679348,0.315978261 Z M23.5275,24.5956522 C23.5275,25.438913 22.8446739,26.1220652 22.0017391,26.1220652 L3.5523913,26.1220652 C2.70913043,26.1220652 2.02597826,25.438913 2.02597826,24.5956522 L2.02597826,3.42456522 C2.02597826,2.58163043 2.70913043,1.89847826 3.5523913,1.89847826 L22.0020652,1.89847826 C22.845,1.89847826 23.5278261,2.58163043 23.5278261,3.42456522 L23.5278261,26.5956522 L23.5275,24.5956522 Z" id="Shape"></path>
                        <rect id="Rectangle-path" x="4.10967391" y="8.12641304" width="17.3683696" height="1.89815217"></rect>
                        <rect id="Rectangle-path" x="4.10967391" y="4.17619565" width="17.3683696" height="1.89847826"></rect>
                        <rect id="Rectangle-path" x="4.10967391" y="12.0769565" width="17.3683696" height="1.89815217"></rect>
                        <rect id="Rectangle-path" x="4.10967391" y="16.0268478" width="8.26467391" height="1.89815217"></rect>
                    </g>
                </g>
            </g>
        </g>
    </g>
</svg>