<?xml version="1.0" encoding="UTF-8"?>
<svg width="25px" height="27px" viewBox="0 0 25 27" version="1.1" xmlns="http://www.w3.org/2000/svg" xmlns:xlink="http://www.w3.org/1999/xlink">
    <!-- Generator: Sketch 42 (36781) - http://www.bohemiancoding.com/sketch -->
    <title>Shape</title>
    <desc>Created with Sketch.</desc>
    <defs></defs>
    <g id="关联分析-事件树" stroke="none" stroke-width="1" fill="none" fill-rule="evenodd">
        <g id="调查取证-关联分析-hover上去显示详情-点击展开-右键可以表格形式展示" transform="translate(-936.000000, -258.000000)" fill="#848484">
            <g id="event-tree" transform="translate(9.000000, 186.000000)">
                <g id="icon" transform="translate(38.000000, 0.000000)">
                    <path d="M899.62522,72.3571429 C898.934515,72.3571429 898.385108,72.9145837 898.385108,73.6070033 L898.385108,75.3255614 C896.792598,75.8155286 895.361727,76.6718268 894.186389,77.7959888 L892.682619,76.9562388 C892.079843,76.6182046 891.330552,76.8303997 890.993371,77.434701 L889.157638,80.7058201 C888.820426,81.3101183 889.043057,82.0765858 889.645865,82.4146137 L891.139854,83.2543637 C890.986746,83.9730929 890.905505,84.716138 890.905505,85.4806839 C890.905505,86.2451923 890.986746,86.9882656 891.139854,87.7069979 L889.645865,88.5467478 C889.043057,88.8847726 888.820426,89.6512495 889.157638,90.2555258 L890.993371,93.5266606 C891.330552,94.1309681 892.079874,94.3431632 892.682619,94.0051072 L894.186389,93.1653572 C895.361727,94.2894817 896.792598,95.1458236 898.385108,95.6358001 L898.385108,97.3543583 C898.385108,98.046781 898.934515,98.6042187 899.62522,98.6042187 L903.374801,98.6042187 C904.065474,98.6042187 904.614913,98.046781 904.614913,97.3543583 L904.614913,95.6358001 C906.207422,95.1458236 907.638294,94.2894817 908.813631,93.1653572 L910.317401,94.0051072 C910.920209,94.3431632 911.669437,94.1309681 912.00665,93.5266606 L913.842382,90.2555258 C914.179563,89.6512495 913.956932,88.8847726 913.354156,88.5467478 L911.860166,87.7069979 C912.013274,86.9882656 912.094515,86.2451923 912.094515,85.4806839 C912.094515,84.716138 912.013274,83.9730929 911.860166,83.2543637 L913.354156,82.4146137 C913.956932,82.0765858 914.179563,81.3101183 913.842382,80.7058201 L912.00665,77.434701 C911.669437,76.8303966 910.920209,76.6182109 910.317401,76.9562388 L908.813631,77.7959888 C907.638294,76.6718268 906.207422,75.8155286 904.614913,75.3255614 L904.614913,73.6070033 C904.614913,72.9145837 904.065474,72.3571429 903.374801,72.3571429 L899.62522,72.3571429 L899.62522,72.3571429 Z M901.50001,79.2313754 C904.944001,79.2313754 907.749313,82.036659 907.749313,85.4806839 C907.749313,88.9246432 904.944001,91.7299862 901.50001,91.7299862 C898.05602,91.7299862 895.250708,88.9246744 895.250708,85.4806839 C895.250708,82.0366559 898.05602,79.2313754 901.50001,79.2313754 Z" id="Shape"></path>
                </g>
            </g>
        </g>
    </g>
</svg>