<?xml version="1.0" encoding="UTF-8"?>
<svg width="26px" height="26px" viewBox="0 0 26 26" version="1.1" xmlns="http://www.w3.org/2000/svg" xmlns:xlink="http://www.w3.org/1999/xlink">
    <!-- Generator: Sketch 42 (36781) - http://www.bohemiancoding.com/sketch -->
    <title>network</title>
    <desc>Created with Sketch.</desc>
    <defs></defs>
    <g id="关联分析-事件树" stroke="none" stroke-width="1" fill="none" fill-rule="evenodd">
        <g id="调查取证-关联分析-hover上去显示详情-点击展开-右键可以表格形式展示" transform="translate(-936.000000, -186.000000)" fill="#848484">
            <g id="event-tree" transform="translate(9.000000, 186.000000)">
                <g id="icon" transform="translate(38.000000, 0.000000)">
                    <path d="M901.999767,26.0004654 C909.167672,26.0004654 915,20.1686027 915,13.0002327 C915,5.83186268 909.168137,0 901.999767,0 C894.831397,0 889,5.83186268 889,13.0002327 C889,20.1681373 894.831863,26.0004654 901.999767,26.0004654 Z M901.999767,24.4177838 C901.776861,24.4177838 901.555351,24.4094074 901.335237,24.3968427 C900.433373,23.0738308 899.708346,21.4981296 899.186215,19.7586225 C900.054107,19.6669471 900.937821,19.6152924 901.835031,19.6152924 C902.698269,19.6152924 903.550339,19.6581053 904.38426,19.742335 C903.859337,21.4948721 903.129656,23.0812765 902.219882,24.4117342 C902.14682,24.4135956 902.073759,24.4177838 901.999767,24.4177838 Z M898.786007,18.2141003 C898.475148,16.8059279 898.287609,15.3181794 898.240142,13.7913408 L905.327075,13.7913408 C905.279143,15.3130604 905.093465,16.7952247 904.784468,18.1996742 C903.820247,18.092642 902.836015,18.0335416 901.835961,18.0335416 C900.801937,18.0330762 899.784199,18.0986916 898.786007,18.2141003 Z M905.969268,19.9643106 C907.410016,20.2090888 908.784217,20.581375 910.059297,21.079773 C908.490577,22.6443056 906.470924,23.7551145 904.213939,24.2004618 C904.934778,22.9300353 905.526248,21.5023178 905.969268,19.9643106 Z M906.352723,18.4263034 C906.672424,16.9436738 906.861825,15.3851909 906.908826,13.7913408 L913.386605,13.7913408 C913.232106,16.0408799 912.426107,18.1145138 911.151026,19.8200498 C909.665605,19.1918169 908.05221,18.7245977 906.352723,18.4263034 Z M906.908826,12.2091246 C906.861825,10.6469188 906.676147,9.11403053 906.365288,7.65141129 C908.075943,7.35032486 909.699576,6.87705608 911.193374,6.23998139 C912.443325,7.93481413 913.233968,9.9856455 913.386605,12.2091246 L906.908826,12.2091246 Z M905.32661,12.2091246 L898.239677,12.2091246 C898.287144,10.7143957 898.470029,9.25317249 898.772046,7.86501047 C899.774427,7.9813499 900.796818,8.04789605 901.835496,8.04789605 C902.839738,8.04789605 903.828623,7.9878649 904.797498,7.87990192 C905.097654,9.26341036 905.279608,10.71998 905.32661,12.2091246 Z M896.657461,12.2091246 L890.61293,12.2091246 C890.762775,10.0312506 891.525496,8.02043994 892.730307,6.34701366 C894.123588,6.9175422 895.627159,7.34846342 897.205652,7.63326234 C896.892001,9.10100052 896.704462,10.6404038 896.657461,12.2091246 Z M896.657461,13.7913408 C896.704927,15.3917059 896.895724,16.9571692 897.217286,18.4449178 C895.651358,18.7264592 894.158955,19.1527268 892.774051,19.7153443 C891.543645,18.0293533 890.764636,15.9957402 890.612464,13.7913408 L896.657461,13.7913408 L896.657461,13.7913408 Z M893.849958,20.9857708 C895.027313,20.5446117 896.289363,20.213277 897.603068,19.9833903 C898.032128,21.4697428 898.60126,22.8527859 899.29092,24.090172 C897.190296,23.5773478 895.3163,22.4823612 893.849958,20.9857708 Z M910.115606,4.97932738 C908.828892,5.48656727 907.440264,5.86397236 905.984625,6.11340409 C905.540209,4.54701008 904.944085,3.08950976 904.213939,1.80000358 C906.497915,2.25046983 908.539439,3.38408119 910.115606,4.97932738 Z M902.222674,1.58826583 C903.14222,2.93454565 903.87702,4.55305973 904.40334,6.33491436 C903.563369,6.42100553 902.705715,6.46521451 901.835496,6.46521451 C900.931306,6.46521451 900.041077,6.41355981 899.1676,6.31955755 C899.691593,4.54980222 900.421739,2.94245673 901.33384,1.60315727 C901.554885,1.59059262 901.776396,1.58221618 902.000233,1.58221618 C902.074225,1.58268153 902.148216,1.58733511 902.222674,1.58826583 Z M899.287663,1.91075871 C898.589161,3.16675914 898.018167,4.58098119 897.587246,6.09478978 C896.258184,5.86118022 894.982173,5.52333053 893.794115,5.07379499 C895.267903,3.54742174 897.160978,2.43102862 899.287663,1.91075871 Z" id="network"></path>
                </g>
            </g>
        </g>
    </g>
</svg>