<?xml version="1.0" encoding="UTF-8"?>
<svg width="26px" height="24px" viewBox="0 0 26 24" version="1.1" xmlns="http://www.w3.org/2000/svg" xmlns:xlink="http://www.w3.org/1999/xlink">
    <!-- Generator: Sketch 42 (36781) - http://www.bohemiancoding.com/sketch -->
    <title>Group</title>
    <desc>Created with Sketch.</desc>
    <defs></defs>
    <g id="关联分析-事件树" stroke="none" stroke-width="1" fill="none" fill-rule="evenodd">
        <g id="调查取证-关联分析-hover上去显示详情-点击展开-右键可以表格形式展示" transform="translate(-935.000000, -333.000000)" fill="#848484">
            <g id="event-tree" transform="translate(9.000000, 186.000000)">
                <g id="icon" transform="translate(38.000000, 0.000000)">
                    <g id="Group" transform="translate(888.000000, 147.000000)">
                        <path d="M15.1666667,15.1666667 L15.1666667,11.9166667 L15.1666667,8.66666667 L8.66666667,8.66666667 L8.66666667,10.8333333 L3.25,10.8333333 C1.45816667,10.8333333 0,12.2915 0,14.0833333 L0,18.4166667 C0,20.2085 1.45816667,21.6666667 3.25,21.6666667 L13,21.6666667 L13,23.8333333 L19.5,20.5833333 L13,17.3333333 L13,19.5 L3.25,19.5 C2.65308333,19.5 2.16666667,19.0146667 2.16666667,18.4166667 L2.16666667,14.0833333 C2.16666667,13.4864167 2.65308333,13 3.25,13 L8.66666667,13 L8.66666667,15.1666667 L15.1666667,15.1666667 Z M10.8333333,10.8333333 L13,10.8333333 L13,13 L10.8333333,13 L10.8333333,10.8333333 Z" id="Shape"></path>
                        <path d="M26,23.8333333 L26,17.3333333 L19.5,17.3333333 L19.5,20.5833333 L19.5,23.8333333 L26,23.8333333 Z M21.6666667,19.5 L23.8333333,19.5 L23.8333333,21.6666667 L21.6666667,21.6666667 L21.6666667,19.5 Z" id="Shape"></path>
                        <path d="M21.6666667,13 L22.75,13 C24.5418333,13 26,11.5418333 26,9.75 L26,5.41666667 C26,3.62483333 24.5418333,2.16666667 22.75,2.16666667 L6.5,2.16666667 L6.5,0 L0,0 L0,6.5 L6.5,6.5 L6.5,4.33333333 L22.75,4.33333333 C23.348,4.33333333 23.8333333,4.81975 23.8333333,5.41666667 L23.8333333,9.75 C23.8333333,10.3469167 23.348,10.8333333 22.75,10.8333333 L21.6666667,10.8333333 L21.6666667,8.66666667 L15.1666667,11.9166667 L21.6666667,15.1666667 L21.6666667,13 Z M4.33333333,4.33333333 L2.16666667,4.33333333 L2.16666667,2.16666667 L4.33333333,2.16666667 L4.33333333,4.33333333 Z" id="Shape"></path>
                    </g>
                </g>
            </g>
        </g>
    </g>
</svg>